# xmcd
#
# Track frame offsets: 
#        150
#        13064
#        26223
#        38388
#        52017
#        71676
#        83862
#        97804
#        115866
#        124741
#        138851
#        157699
#
# Disc length: 2381 seconds
#
# Revision: 0
# Processed by: cddbd v1.5.2PL0 Copyright (c) Steve Scherf et al.
# Submitted via: ExactAudioCopy v0.95b4
#
DISCID=8f094b0c
DTITLE=Debra Wallace - What is it you Want
DYEAR=1998
DGENRE=
TTITLE0=What Is It You Want
TTITLE1=Castles
TTITLE2=Man From Nowhere
TTITLE3=Should Have Gone To See My Friend
TTITLE4=Blood For Comfort
TTITLE5=Gone Gone Gone
TTITLE6=Cry Baby
TTITLE7=Cover Up
TTITLE8=Like A River
TTITLE9=Sea of Silence
TTITLE10=Outside Inside
TTITLE11=Right Moves
EXTD=
EXTT0=
EXTT1=
EXTT2=
EXTT3=
EXTT4=
EXTT5=
EXTT6=
EXTT7=
EXTT8=
EXTT9=
EXTT10=
EXTT11=
PLAYORDER=
